<?xml version="1.0" encoding="UTF-8"?>
<svg id="Ebene_1" xmlns="http://www.w3.org/2000/svg" version="1.1" viewBox="0 0 262.2049866 159.7299957">
  <!-- Generator: Adobe Illustrator 30.3.0, SVG Export Plug-In . SVG Version: 2.1.3 Build 182)  -->
  <path d="M205.3660126,106.2099991c-9.128006,0-18.0480042,6.8460007-20.1220093,16.3880005-2.0739899,9.5430069,3.9410095,16.3879929,13.0690002,16.3879929,9.1269989,0,18.0470123-6.844986,20.1220093-16.3879929,2.0739899-9.5419998-3.9420013-16.3880005-13.0690002-16.3880005M219.6790161,38.9990005c9.1279907,0,18.0479889-6.8450012,20.121994-16.3880081,2.0749969-9.5419922-4.1490021-16.3879852-13.276001-16.3879852s-18.0469971,6.845993-19.9140015,16.3879852c-1.8670044,9.5430069,3.9409943,16.3880081,13.0680084,16.3880081M163.4630127,2.4889984h95.6299744l-12.6539764,59.3290024h-50.822998l-4.5640106,21.5739975h50.8240051l-12.446991,59.3280029h-95.631012L163.4630127,2.4889984ZM161.5960083,0l-30.9089966,145.2100067v14.519989h131.5179749V0h-100.6089783ZM12.0319996,2.4889984h117.6200085l-9.128006,42.7330017h-36.5099945l-20.5360031,97.4980011H18.6700001l20.5370007-97.4980011H2.9049997L12.0319996,2.4889984ZM10.165,0L0,47.7120056v112.0179901h132.7630005V0H10.165Z"/>
</svg>